<svg width="340" height="340" viewBox="0 0 340 340" fill="none" xmlns="http://www.w3.org/2000/svg">
<rect x="10" y="10" width="320" height="320" rx="80" fill="black" stroke="url(#paint0_angular_2_3)" stroke-width="20"/>
<path fill-rule="evenodd" clip-rule="evenodd" d="M224.384 112.815C253.269 144.081 262.896 154.921 264.537 158.028C266.778 162.272 269.333 172.262 269.318 176.721C269.304 181.077 267.207 189.168 264.975 193.482C263.326 196.67 213.938 241.761 212.096 241.761C211.841 241.761 201.777 231.078 189.731 218.022C177.685 204.965 164.265 190.452 159.908 185.772C155.551 181.091 151.193 176.402 150.222 175.353C148.5 173.49 148.343 173.554 143.644 178.038C140.996 180.564 129.38 190.964 117.83 201.148L96.8299 219.665L88.3299 210.601C78.2979 199.904 72.8229 192.197 71.1649 186.438C69.2739 179.87 69.7569 167.063 72.0939 161.761C74.9469 155.293 75.0679 155.173 108.968 124.995L117.107 117.75L132.418 134.506C140.839 143.721 147.852 151.436 148.003 151.651C148.489 152.343 151.604 149.679 180.92 123.501C196.787 109.333 210.031 97.8583 210.353 98.0013C210.674 98.1443 216.988 104.81 224.384 112.815ZM199.76 128.084C194.772 132.581 183.972 142.252 175.76 149.574C167.549 156.895 160.693 163.27 160.524 163.74C160.356 164.21 165.717 170.594 172.437 177.928C184.589 191.19 206.935 215.444 210.518 219.261C211.71 220.531 212.658 220.88 213.113 220.219C213.507 219.646 221.507 212.378 230.89 204.067C250.928 186.32 254.005 183.011 254.899 178.242C256.316 170.691 254.024 166.621 239.492 150.887C213.315 122.544 210.649 119.762 209.744 119.834C209.241 119.874 204.749 123.587 199.76 128.084ZM101.572 153.306C93.2009 160.756 85.9369 167.626 85.4299 168.574C81.4989 175.918 83.8609 184.891 91.7849 192.716L97.2139 198.078L105.519 190.669C125.839 172.543 136.83 162.352 136.83 161.639C136.83 161.216 133.005 156.733 128.33 151.677C123.655 146.621 119.47 141.872 119.03 141.123C118.59 140.374 117.907 139.761 117.512 139.761C117.116 139.761 109.943 145.856 101.572 153.306Z" fill="white"/>
<defs>
<radialGradient id="paint0_angular_2_3" cx="0" cy="0" r="1" gradientUnits="userSpaceOnUse" gradientTransform="translate(170 170) rotate(45) scale(212.132)">
<stop offset="0.226359" stop-color="#FF0068"/>
<stop offset="0.458536" stop-color="#FFA800"/>
<stop offset="0.777964" stop-color="#00A3FF"/>
<stop offset="0.996973" stop-color="#9C1FFF"/>
</radialGradient>
</defs>
</svg>
